<svg width="174" height="38" viewBox="0 0 174 38" fill="none" xmlns="http://www.w3.org/2000/svg">
<path d="M54.706 12.3254H52.2018V25.0534H61.1923V22.6421H54.706V12.3254Z" fill="#4FBA58"/>
<path d="M69.435 19.8373H75.7189V17.4417H69.435V14.7211H76.4629V12.3254H66.9254V25.0529H76.5399V22.6567H69.435V19.8373Z" fill="#4FBA58"/>
<path d="M86.2822 19.6422L87.9789 15.8673L89.6632 19.6422H86.2822ZM87.0001 12.2698L81.2028 25.0797H83.8649L85.229 22.0368H90.7137L92.0659 25.0797H94.7936L88.9947 12.2698H87.0001Z" fill="#4FBA58"/>
<path d="M102.45 14.7363H105.403C106.47 14.7363 107.741 15.0325 107.741 16.4346C107.741 17.5253 106.837 18.1997 105.382 18.1997H102.45V14.7363ZM110.266 16.3532C110.266 15.2984 109.888 14.3391 109.198 13.6537C108.343 12.7986 107.028 12.3254 105.499 12.3254H99.9421V25.0534H102.45V20.5601L104.735 20.4456L108.339 25.0534H111.288L107.557 20.0962C109.262 19.4852 110.266 18.1145 110.266 16.3532Z" fill="#4FBA58"/>
<path d="M124.923 20.4304L118.403 12.3254H116.45V25.0529H118.923V16.7336L125.626 25.0529H127.395V12.3254H124.923V20.4304Z" fill="#4FBA58"/>
<path d="M144.851 12.3254L142.396 12.4714L138.895 17.6197L135.166 12.3254H132.289L137.627 19.9752V25.0534H140.148L140.089 20.1466L145.478 12.3254H144.851Z" fill="#4FBA58"/>
<path d="M154.454 17.469C151.807 16.9015 151.807 16.3366 151.807 15.7891C151.807 15.0512 152.568 14.5351 153.653 14.5351C154.728 14.5351 155.662 14.8889 156.821 15.8309L157.083 16.0436L158.376 14.3279L158.366 13.9068L158.114 13.7044C156.763 12.6197 155.437 12.158 153.688 12.158C151.146 12.158 149.303 13.7462 149.303 15.9383C149.303 18.5488 151.386 19.3616 153.645 19.8511C156.161 20.3812 156.161 20.9412 156.161 21.4832C156.161 22.2934 155.373 22.836 154.199 22.836C152.842 22.836 151.814 22.4084 150.446 21.1745L150.194 20.9434L148.807 22.5788L148.798 23.0031L149.041 23.2174C150.564 24.5799 152.19 25.2142 154.153 25.2142C156.821 25.2142 158.683 23.6135 158.683 21.3167C158.683 19.2933 157.381 18.1066 154.454 17.469Z" fill="#4FBA58"/>
<path d="M163.744 12.3254V14.7363H167.61V25.0534H170.134V14.7363H174V12.3254H163.744Z" fill="#4FBA58"/>
<path d="M25.9481 14.0313H17.3863V11.4252H25.9481V14.0313ZM25.9481 19.9908H17.3863V17.3858H25.9481V19.9908ZM25.9481 25.9487H11.4246V11.4252H14.0308V23.3441H25.9481V25.9487ZM18.6869 0C8.3665 0 0 8.36597 0 18.6869C0 29.0079 8.3665 37.3739 18.6869 37.3739C29.0079 37.3739 37.3739 29.0079 37.3739 18.6869C37.3739 8.36597 29.0079 0 18.6869 0Z" fill="#4FBA58"/>
</svg>
